<mxfile host="app.diagrams.net" modified="2021-06-08T07:43:41.430Z" agent="5.0 (Macintosh; Intel Mac OS X 10_15_7) AppleWebKit/537.36 (KHTML, like Gecko) Chrome/90.0.4430.93 Safari/537.36" etag="5COx575SgC_BVpXV9G1k" version="14.7.6" type="github">
  <diagram id="R2lEEEUBdFMjLlhIrx00" name="Page-1">
    <mxGraphModel dx="2946" dy="1186" grid="1" gridSize="10" guides="1" tooltips="1" connect="1" arrows="1" fold="1" page="1" pageScale="1" pageWidth="1654" pageHeight="1169" math="0" shadow="0" extFonts="Permanent Marker^https://fonts.googleapis.com/css?family=Permanent+Marker">
      <root>
        <mxCell id="0" />
        <mxCell id="1" parent="0" />
        <mxCell id="qBcz6T2pQB45wr5CksoM-1" value="Asset" style="whiteSpace=wrap;html=1;align=center;" vertex="1" parent="1">
          <mxGeometry x="390" y="80" width="100" height="40" as="geometry" />
        </mxCell>
        <mxCell id="qBcz6T2pQB45wr5CksoM-2" value="Entity" style="whiteSpace=wrap;html=1;align=center;" vertex="1" parent="1">
          <mxGeometry x="1065" y="170" width="100" height="40" as="geometry" />
        </mxCell>
        <mxCell id="qBcz6T2pQB45wr5CksoM-10" value="" style="endArrow=none;html=1;rounded=0;dashed=1;dashPattern=1 2;exitX=0.5;exitY=1;exitDx=0;exitDy=0;entryX=0.5;entryY=0;entryDx=0;entryDy=0;" edge="1" parent="1" source="qBcz6T2pQB45wr5CksoM-1" target="qBcz6T2pQB45wr5CksoM-19">
          <mxGeometry relative="1" as="geometry">
            <mxPoint x="90" y="340" as="sourcePoint" />
            <mxPoint x="250" y="340" as="targetPoint" />
          </mxGeometry>
        </mxCell>
        <mxCell id="qBcz6T2pQB45wr5CksoM-11" value="" style="resizable=0;html=1;align=right;verticalAlign=bottom;" connectable="0" vertex="1" parent="qBcz6T2pQB45wr5CksoM-10">
          <mxGeometry x="1" relative="1" as="geometry" />
        </mxCell>
        <mxCell id="qBcz6T2pQB45wr5CksoM-15" value="Dataset" style="whiteSpace=wrap;html=1;align=center;" vertex="1" parent="1">
          <mxGeometry x="260" y="250" width="100" height="40" as="geometry" />
        </mxCell>
        <mxCell id="qBcz6T2pQB45wr5CksoM-19" value="" style="shape=sumEllipse;perimeter=ellipsePerimeter;whiteSpace=wrap;html=1;backgroundOutline=1;" vertex="1" parent="1">
          <mxGeometry x="430" y="160.04999999999995" width="20" height="20" as="geometry" />
        </mxCell>
        <mxCell id="qBcz6T2pQB45wr5CksoM-27" value="" style="endArrow=none;html=1;rounded=0;dashed=1;dashPattern=1 2;exitX=0;exitY=1;exitDx=0;exitDy=0;entryX=0.5;entryY=0;entryDx=0;entryDy=0;" edge="1" parent="1" source="qBcz6T2pQB45wr5CksoM-19" target="qBcz6T2pQB45wr5CksoM-15">
          <mxGeometry relative="1" as="geometry">
            <mxPoint x="570" y="150" as="sourcePoint" />
            <mxPoint x="570" y="210" as="targetPoint" />
          </mxGeometry>
        </mxCell>
        <mxCell id="qBcz6T2pQB45wr5CksoM-28" value="" style="resizable=0;html=1;align=right;verticalAlign=bottom;" connectable="0" vertex="1" parent="qBcz6T2pQB45wr5CksoM-27">
          <mxGeometry x="1" relative="1" as="geometry" />
        </mxCell>
        <mxCell id="qBcz6T2pQB45wr5CksoM-30" value="Model" style="whiteSpace=wrap;html=1;align=center;" vertex="1" parent="1">
          <mxGeometry x="390" y="250" width="100" height="40" as="geometry" />
        </mxCell>
        <mxCell id="qBcz6T2pQB45wr5CksoM-31" value="" style="endArrow=none;html=1;rounded=0;dashed=1;dashPattern=1 2;exitX=0.5;exitY=1;exitDx=0;exitDy=0;entryX=0.5;entryY=0;entryDx=0;entryDy=0;" edge="1" parent="1" source="qBcz6T2pQB45wr5CksoM-19" target="qBcz6T2pQB45wr5CksoM-30">
          <mxGeometry relative="1" as="geometry">
            <mxPoint x="442.9289321881347" y="187.1210678118655" as="sourcePoint" />
            <mxPoint x="380" y="270" as="targetPoint" />
          </mxGeometry>
        </mxCell>
        <mxCell id="qBcz6T2pQB45wr5CksoM-32" value="" style="resizable=0;html=1;align=right;verticalAlign=bottom;" connectable="0" vertex="1" parent="qBcz6T2pQB45wr5CksoM-31">
          <mxGeometry x="1" relative="1" as="geometry" />
        </mxCell>
        <mxCell id="qBcz6T2pQB45wr5CksoM-33" value="Rule" style="whiteSpace=wrap;html=1;align=center;" vertex="1" parent="1">
          <mxGeometry x="510" y="250" width="100" height="40" as="geometry" />
        </mxCell>
        <mxCell id="qBcz6T2pQB45wr5CksoM-34" value="" style="endArrow=none;html=1;rounded=0;dashed=1;dashPattern=1 2;exitX=1;exitY=0.5;exitDx=0;exitDy=0;entryX=0.62;entryY=0;entryDx=0;entryDy=0;entryPerimeter=0;" edge="1" parent="1" source="qBcz6T2pQB45wr5CksoM-19" target="qBcz6T2pQB45wr5CksoM-33">
          <mxGeometry relative="1" as="geometry">
            <mxPoint x="457.0710678118653" y="187.12106781186526" as="sourcePoint" />
            <mxPoint x="510" y="270" as="targetPoint" />
          </mxGeometry>
        </mxCell>
        <mxCell id="qBcz6T2pQB45wr5CksoM-35" value="" style="resizable=0;html=1;align=right;verticalAlign=bottom;" connectable="0" vertex="1" parent="qBcz6T2pQB45wr5CksoM-34">
          <mxGeometry x="1" relative="1" as="geometry" />
        </mxCell>
        <mxCell id="qBcz6T2pQB45wr5CksoM-36" value="Table" style="whiteSpace=wrap;html=1;align=center;" vertex="1" parent="1">
          <mxGeometry x="140" y="360" width="100" height="40" as="geometry" />
        </mxCell>
      </root>
    </mxGraphModel>
  </diagram>
</mxfile>
